Exact Audio Copy V0.99 prebeta 1 from 25. May 2007

EAC 抓取日志文件从25. 十二月 2010, 23:45

张振富&耿莲凤 / 20世纪中华歌坛名人百集珍藏版

使用驱动器  ：BENQ    DVD-ROM 16X   Adapter: 0  ID: 1

读取模式     : 保护
使用精确流   : 是
废除音频缓冲 : 是
使用 C2 指针 : 否

读取偏移校正                   : 738
读取 Lead-In 和 Lead-Out       : 否
用静音填充抓取中丢失偏移的采样 : 是
去除首尾静音块                 : 否
已用接口                       : 已安装外部 ASPI 接口

所用输出格式 : 内部 WAV 函数
样本格式     : 44.100 Hz;16 Bit;立体声


被抓轨 CD 的 TOC

     音轨 |   开始   |   长度   | 起始扇区 | 结尾扇区 
    --------------------------------------------------
       1  |  0:00.00 |  2:04.72 |       0  |    9371  
       2  |  2:04.72 |  2:12.05 |    9372  |   19276  
       3  |  4:17.02 |  2:41.60 |   19277  |   31411  
       4  |  6:58.62 |  3:17.18 |   31412  |   46204  
       5  | 10:16.05 |  2:52.45 |   46205  |   59149  
       6  | 13:08.50 |  3:28.70 |   59150  |   74819  
       7  | 16:37.45 |  4:33.60 |   74820  |   95354  
       8  | 21:11.30 |  3:59.02 |   95355  |  113281  
       9  | 25:10.32 |  2:32.20 |  113282  |  124701  
      10  | 27:42.52 |  3:38.68 |  124702  |  141119  
      11  | 31:21.45 |  2:33.22 |  141120  |  152616  
      12  | 33:54.67 |  2:24.55 |  152617  |  163471  
      13  | 36:19.47 |  3:50.58 |  163472  |  180779  
      14  | 40:10.30 |  3:25.02 |  180780  |  196156  
      15  | 43:35.32 |  2:44.55 |  196157  |  208511  
      16  | 46:20.12 |  3:13.68 |  208512  |  223054  
      17  | 49:34.05 |  2:53.45 |  223055  |  236074  
      18  | 52:27.50 |  3:07.60 |  236075  |  250159  
      19  | 55:35.35 |  2:29.52 |  250160  |  261386  


范围状态及错误

已选择范围

     文件名 E:\文件夹\20世纪中华歌坛名人百集珍藏版-张振富&耿莲凤[lwg188原创]\张振富&耿莲凤 - 20世纪中华歌坛名人百集珍藏版.wav

     峰值电平 83.9 %
     范围质量 100.0 %
     复制 CRC 2D4E9AB0
     复制成功

没有错误发生

状态报告结尾
